# xmcd CD database file
#
# Track frame offsets:
#	150
#	57787
#	92292
#	158880
#	179335
#
# Disc length: 2822 seconds
#
# Revision: 0
# Processed by: cddbd v1.5.2PL0 Copyright (c) Steve Scherf et al.
# Submitted via: CDex 1.51
#
DISCID=310b0405
DTITLE=Peter Schärli Quintett with Glenn Ferris - Tomorrow
DYEAR=1900
DGENRE=Jazz
TTITLE0=Not a Clean State
TTITLE1=Stop/Start (I never go back to...)
TTITLE2=Time Quality (C'est toujours demain)
TTITLE3=Maybe Possible Tomorrow
TTITLE4=Waiting
EXTD=
EXTT0=
EXTT1=
EXTT2=
EXTT3=
EXTT4=
PLAYORDER=
